<?xml version="1.0" ?><!DOCTYPE svg  PUBLIC '-//W3C//DTD SVG 1.1//EN'  'http://www.w3.org/Graphics/SVG/1.1/DTD/svg11.dtd'><svg enable-background="new 0 0 32 32" version="1.1" viewBox="0 0 32 32" xml:space="preserve" xmlns="http://www.w3.org/2000/svg" xmlns:xlink="http://www.w3.org/1999/xlink"><g id="Layer_1"/><g id="Layer_2"><g><polyline fill="none" points="    10,26 30,26 30,6 10,6   " stroke="#000000" stroke-linecap="round" stroke-linejoin="round" stroke-miterlimit="10" stroke-width="2"/><g><g><polyline fill="none" points="      9,17 6,17 6,23     " stroke="#000000" stroke-linecap="round" stroke-linejoin="round" stroke-miterlimit="10" stroke-width="2"/><line fill="none" stroke="#000000" stroke-linecap="round" stroke-linejoin="round" stroke-miterlimit="10" stroke-width="2" x1="8" x2="6" y1="20" y2="20"/></g><polyline fill="none" points="     21,17 18,17 18,23 21,23    " stroke="#000000" stroke-linecap="round" stroke-linejoin="round" stroke-miterlimit="10" stroke-width="2"/><line fill="none" stroke="#000000" stroke-linecap="round" stroke-linejoin="round" stroke-miterlimit="10" stroke-width="2" x1="20" x2="18" y1="20" y2="20"/><polyline fill="none" points="     27,17 24,17 24,23 27,23    " stroke="#000000" stroke-linecap="round" stroke-linejoin="round" stroke-miterlimit="10" stroke-width="2"/><line fill="none" stroke="#000000" stroke-linecap="round" stroke-linejoin="round" stroke-miterlimit="10" stroke-width="2" x1="26" x2="24" y1="20" y2="20"/><path d="     M12,23v-6h2c0.6,0,1,0.4,1,1v1c0,0.6-0.4,1-1,1h-2" fill="none" stroke="#000000" stroke-linecap="round" stroke-linejoin="round" stroke-miterlimit="10" stroke-width="2"/><path d="     M13.5,20L13.5,20c0.8,0,1.5,0.7,1.5,1.5V23" fill="none" stroke="#000000" stroke-linecap="round" stroke-linejoin="round" stroke-miterlimit="10" stroke-width="2"/></g><line fill="none" stroke="#000000" stroke-linecap="round" stroke-linejoin="round" stroke-miterlimit="10" stroke-width="2" x1="7" x2="2" y1="26" y2="26"/><line fill="none" stroke="#000000" stroke-linecap="round" stroke-linejoin="round" stroke-miterlimit="10" stroke-width="2" x1="6" x2="2" y1="6" y2="6"/><line fill="none" stroke="#000000" stroke-linecap="round" stroke-linejoin="round" stroke-miterlimit="10" stroke-width="2" x1="11" x2="7" y1="10" y2="10"/><line fill="none" stroke="#000000" stroke-linecap="round" stroke-linejoin="round" stroke-miterlimit="10" stroke-width="2" x1="6" x2="2" y1="14" y2="14"/><polygon fill="none" points="    23,11.9 20,11 17,11.9 17,6 23,6   " stroke="#000000" stroke-linecap="round" stroke-linejoin="round" stroke-miterlimit="10" stroke-width="2"/><line fill="none" stroke="#000000" stroke-linecap="round" stroke-linejoin="round" stroke-miterlimit="10" stroke-width="2" x1="4" x2="2" y1="10" y2="10"/><line fill="none" stroke="#000000" stroke-linecap="round" stroke-linejoin="round" stroke-miterlimit="10" stroke-width="2" x1="3" x2="2" y1="20" y2="20"/></g></g></svg>