<svg id="Layer_1" data-name="Layer 1" xmlns="http://www.w3.org/2000/svg" viewBox="0 0 512 512"><title>facebook-flat</title><g id="Facebook"><circle id="back" cx="256" cy="256" r="256" fill="#3a5a99"/><path id="Facebook-2" data-name="Facebook" d="M380.55,116H131.45A15.45,15.45,0,0,0,116,131.45V380.55A15.45,15.45,0,0,0,131.45,396h134.1V287.57H229.07V245.31h36.49V214.15c0-36.16,22.09-55.86,54.35-55.86A299.1,299.1,0,0,1,352.51,160v37.8H330.14c-17.55,0-20.95,8.34-20.95,20.57v27H351l-5.45,42.26H309.2V396h71.35A15.45,15.45,0,0,0,396,380.55V131.45A15.45,15.45,0,0,0,380.55,116Z" fill="#fff"/></g></svg>