<?xml version="1.0" ?><!DOCTYPE svg  PUBLIC '-//W3C//DTD SVG 1.1//EN'  'http://www.w3.org/Graphics/SVG/1.1/DTD/svg11.dtd'><svg height="512px" style="enable-background:new 0 0 512 512;" version="1.1" viewBox="0 0 512 512" width="512px" xml:space="preserve" xmlns="http://www.w3.org/2000/svg" xmlns:xlink="http://www.w3.org/1999/xlink"><g id="_x33_00_x2C__idea_x2C__business_x2C__brain_x2C__mind_x2C__bulb"><g><path d="M90.927,166.211v0.086v0.028l-0.028,0.058    c-0.06,0.435-0.087,0.898-0.087,1.332c0,2.518,1.011,4.803,2.66,6.452s3.938,2.69,6.454,2.69c2.46,0,4.689-0.954,6.31-2.517    l0.144-0.174c1.649-1.649,2.692-3.935,2.692-6.452s-1.042-4.804-2.692-6.453s-3.938-2.662-6.454-2.662    c-2.516,0-4.804,1.013-6.454,2.662C92.169,162.564,91.247,164.301,90.927,166.211 M133.55,273.535    c-1.677-1.649-3.965-2.662-6.482-2.662c-2.516,0-4.804,1.013-6.454,2.662c-1.65,1.649-2.661,3.936-2.661,6.453    c0,2.459,0.955,4.688,2.517,6.309l0.144,0.145c1.649,1.649,3.938,2.691,6.454,2.691c2.548,0,4.833-1.014,6.454-2.662    c1.678-1.65,2.692-3.937,2.692-6.482C136.214,277.471,135.171,275.185,133.55,273.535z M267.932,140.139    c-1.649-1.65-3.938-2.691-6.453-2.691c-2.517,0-4.805,1.041-6.454,2.691c-1.649,1.62-2.66,3.906-2.66,6.453    c0,2.517,1.011,4.803,2.66,6.451c1.649,1.65,3.938,2.662,6.454,2.662c2.46,0,4.688-0.954,6.31-2.488l0.144-0.174    c1.65-1.62,2.661-3.877,2.692-6.337v-0.028v-0.086v-0.088v-0.028C270.593,143.986,269.582,141.759,267.932,140.139z     M261.479,130.357c4.484,0,8.566,1.823,11.486,4.746c2.112,2.112,3.646,4.803,4.341,7.813c12.705-0.781,24.104-6.222,32.555-14.67    c9.114-9.145,14.786-21.762,14.786-35.68c0-13.947-5.672-26.564-14.786-35.708c-9.143-9.114-21.759-14.757-35.678-14.757    c-1.881,0-3.734,0.086-5.527,0.289c5.18,2.344,9.865,5.613,13.831,9.578c8.479,8.479,13.746,20.197,13.746,33.074    c0,1.938-1.593,3.53-3.562,3.53c-1.938,0-3.559-1.592-3.559-3.53c0-10.938-4.457-20.863-11.631-28.039    c-7.205-7.205-17.161-11.662-28.069-11.662c-10.911,0-20.864,4.457-28.041,11.633c-7.205,7.205-11.662,17.131-11.662,28.068    v238.176c0,10.91,4.458,20.864,11.662,28.041c7.205,7.205,17.13,11.66,28.041,11.66c2.604,0,5.121-0.23,7.524-0.693    c2.488-0.492,4.888-1.217,7.205-2.142c1.155-0.464,2.429-0.29,3.384,0.376c2.835,1.823,5.99,3.27,9.289,4.254    c3.239,0.955,6.686,1.447,10.272,1.447c4.629,0,9.058-0.84,13.08-2.402c2.951-1.129,5.699-2.634,8.22-4.456    c-6.978-6.279-12.849-13.803-17.25-22.194c-5.902-11.141-9.229-23.844-9.229-37.299c0-22.137,8.97-42.189,23.496-56.688    c4.285-4.283,9.058-8.102,14.21-11.314c0.607-1.07,1.733-1.765,3.008-1.794c11.662-6.597,25.117-10.358,39.439-10.358    c8.191,0,16.092,1.215,23.527,3.501c-1.533-8.97-5.471-17.159-11.082-23.872c-6.857-8.132-16.204-14.093-26.855-16.639    c-1.909-0.463-3.096-2.373-2.632-4.283c0.435-1.881,2.372-3.068,4.253-2.604c8.479,2.026,16.235,5.933,22.802,11.257    c1.505-2.951,2.72-6.076,3.618-9.318c1.187-4.253,1.793-8.796,1.793-13.513c0-9.636-2.691-18.636-7.349-26.274    c-3.733-6.105-8.738-11.372-14.613-15.395c0.204,1.736,0.319,3.502,0.319,5.267c0,12.009-4.864,22.889-12.732,30.76    c-7.872,7.87-18.752,12.731-30.761,12.731c-1.969,0-3.559-1.592-3.559-3.559c0-1.968,1.59-3.56,3.559-3.56    c10.04,0,19.127-4.051,25.725-10.648c6.569-6.569,10.647-15.685,10.647-25.725c0-7.205-2.081-13.919-5.671-19.532    c-2.92-4.572-6.829-8.449-11.458-11.344c-1.071,14.18-7.262,26.912-16.695,36.373c-9.725,9.724-22.917,15.975-37.531,16.783    c-0.694,3.068-2.229,5.846-4.4,8.016l-0.2,0.203c-2.924,2.807-6.917,4.543-11.286,4.543c-4.485,0-8.535-1.822-11.458-4.746    c-2.952-2.951-4.777-7.002-4.777-11.486c0-4.486,1.825-8.537,4.777-11.488C252.943,132.151,256.993,130.357,261.479,130.357z     M123.162,85.043c0,1.938-1.594,3.53-3.559,3.53c-1.969,0-3.559-1.592-3.559-3.53c0-12.877,5.265-24.596,13.771-33.074    c3.966-3.965,8.623-7.234,13.803-9.578c-1.793-0.203-3.615-0.289-5.496-0.289c-13.947,0-26.563,5.643-35.681,14.757    C93.3,66.002,87.656,78.619,87.656,92.566c0,13.918,5.644,26.535,14.786,35.68c8.047,8.072,18.839,13.426,30.849,14.555v-0.059    c-1.446-6.742-0.723-13.716,3.155-20.429c2.053-3.56,5.004-7.032,8.999-10.302c1.505-1.244,3.762-1.013,5.004,0.492    c1.246,1.504,1.014,3.732-0.491,4.977c-3.299,2.721-5.7,5.527-7.349,8.392c-2.923,5.035-3.474,10.302-2.372,15.395    c0.259,1.302,0.635,2.575,1.126,3.849l0.028,0.086l0.088,0.232v0.028l0.028,0.058v0.029c1.478,3.82,3.762,7.494,6.542,10.881    c4.369,5.295,9.925,9.867,15.508,13.107c1.678,0.984,2.257,3.154,1.274,4.833c-0.955,1.707-3.155,2.286-4.833,1.302    c-6.25-3.617-12.501-8.768-17.421-14.729c-2.748-3.386-5.121-7.031-6.858-10.852c-14.929-0.607-28.413-6.915-38.31-16.813    c-9.461-9.461-15.656-22.193-16.698-36.373c-4.629,2.895-8.563,6.771-11.486,11.344c-3.559,5.613-5.644,12.327-5.644,19.532    c0,7.958,2.548,15.337,6.857,21.298c3.734,5.149,8.798,9.317,14.702,11.95c0.811-1.794,1.937-3.415,3.327-4.774    c2.924-2.951,6.974-4.775,11.458-4.775c4.485,0,8.567,1.824,11.487,4.746c2.952,2.951,4.776,7.002,4.776,11.488    c0,4.485-1.825,8.564-4.776,11.488l-0.2,0.202c-2.923,2.835-6.917,4.571-11.287,4.571c-4.485,0-8.535-1.822-11.458-4.773    c-2.864-2.836-4.661-6.743-4.773-11.055c-7.64-3.096-14.238-8.305-19.014-14.932c-5.177-7.176-8.216-15.943-8.216-25.435    c0-1.765,0.084-3.53,0.316-5.267c-5.903,4.022-10.908,9.289-14.642,15.395c-4.65,7.668-7.342,16.639-7.342,26.274    c0,4.717,0.639,9.26,1.807,13.513c0.884,3.242,2.113,6.367,3.604,9.318c6.563-5.324,14.315-9.23,22.794-11.257    c1.909-0.464,3.822,0.724,4.282,2.604c0.435,1.91-0.723,3.82-2.632,4.283c-11.199,2.662-20.948,9.115-27.858,17.883    c-6.756,8.564-10.792,19.416-10.792,31.193c0,7.146,1.474,13.947,4.106,20.053c2.214,5.092,5.24,9.751,8.942,13.832    c2.713-6.627,6.679-12.646,11.539-17.768c9.869-10.359,23.556-17.072,38.833-17.825c1.969-0.087,3.619,1.418,3.703,3.356    c0.088,1.969-1.418,3.618-3.355,3.734c-13.08,0.635-24.858,6.277-33.449,15.018c10.444,15.162,37.443,4.89,37.531,4.86    c1.85-0.665,3.875,0.29,4.542,2.142c0.667,1.823-0.288,3.877-2.113,4.543c-0.088,0.029-30.585,11.662-44.676-6.019    c-6.134,8.362-9.753,18.693-9.753,29.862c0,14.439,4.601,27.374,12.876,36.489c6.83,7.581,16.263,12.588,27.693,13.629    c-0.463-2.546-0.723-5.151-0.723-7.842c0-10.88,4.022-20.863,10.648-28.474c5.412-6.221,12.529-10.88,20.632-13.252    c-1.362-2.374-2.141-5.123-2.141-8.074c0-4.456,1.822-8.536,4.773-11.459c2.923-2.951,6.974-4.774,11.458-4.774    c4.485,0,8.567,1.823,11.487,4.774c2.951,2.923,4.776,7.003,4.776,11.459c0,4.485-1.825,8.536-4.776,11.488    c-2.952,2.951-7.001,4.773-11.487,4.773c-3.007,0-5.843-0.838-8.275-2.285c-8.363,1.476-15.74,5.846-21.067,11.979    c-5.556,6.366-8.911,14.729-8.911,23.844c0,3.617,0.52,7.089,1.505,10.388l0,0l0.056,0.174l0,0l0.028,0.088l0,0    c1.765,5.758,4.92,10.908,9.058,15.075c6.598,6.569,15.684,10.649,25.725,10.649c3.618,0,7.061-0.492,10.3-1.447    c3.299-0.984,6.426-2.431,9.29-4.254c0.955-0.666,2.201-0.84,3.359-0.376c2.313,0.925,4.745,1.649,7.205,2.142    c2.401,0.463,4.949,0.693,7.521,0.693c10.911,0,20.864-4.455,28.041-11.66c7.205-7.177,11.662-17.131,11.662-28.041v-0.086V85.129    v-0.086c0-10.938-4.457-20.863-11.662-28.039c-7.177-7.205-17.102-11.662-28.041-11.662c-10.907,0-20.833,4.457-28.037,11.662    C127.619,64.18,123.162,74.105,123.162,85.043z M335.816,283.027l26.244,12.992l26.275-13.021    c-1.214-1.853-2.604-3.561-4.137-5.121c-5.672-5.644-13.484-9.145-22.139-9.145c-8.623,0-16.436,3.501-22.078,9.145    C338.421,279.438,337.031,281.146,335.816,283.027z M330.752,427.709c-1.969,0-3.559-1.591-3.559-3.56    c0-1.967,1.59-3.559,3.559-3.559h62.621c1.965,0,3.559,1.592,3.559,3.559c0,1.969-1.594,3.56-3.559,3.56H330.752z     M336.076,441.772c-1.965,0-3.559-1.591-3.559-3.56c0-1.968,1.594-3.56,3.559-3.56h52c1.969,0,3.559,1.592,3.559,3.56    c0,1.969-1.59,3.56-3.559,3.56H336.076z M340.418,455.835c-1.969,0-3.559-1.591-3.559-3.559c0-1.938,1.59-3.56,3.559-3.56h43.317    c1.937,0,3.53,1.621,3.53,3.56c0,1.968-1.594,3.559-3.53,3.559H340.418z M348.984,469.898c-1.969,0-3.563-1.591-3.563-3.53    c0-1.967,1.594-3.559,3.563-3.559h26.156c1.969,0,3.559,1.592,3.559,3.559c0,1.939-1.59,3.53-3.559,3.53H348.984z M419.182,193.96    c0.985-1.679,3.154-2.257,4.832-1.272c1.709,0.954,2.288,3.153,1.302,4.832l-11.921,20.66c-0.983,1.679-3.152,2.258-4.833,1.273    c-1.706-0.984-2.284-3.154-1.302-4.833L419.182,193.96z M464.527,236.729c1.678-0.984,3.878-0.405,4.833,1.302    c0.982,1.679,0.403,3.849-1.274,4.833l-20.66,11.922c-1.678,0.983-3.85,0.404-4.833-1.303c-0.985-1.678-0.407-3.849,1.274-4.832    L464.527,236.729z M482.437,296.424c1.94,0,3.563,1.592,3.563,3.561c0,1.938-1.622,3.559-3.563,3.559h-23.844    c-1.965,0-3.559-1.62-3.559-3.559c0-1.969,1.594-3.561,3.559-3.561H482.437z M413.714,248.158    c-13.196-13.225-31.452-21.385-51.653-21.385c-20.169,0-38.426,8.16-51.649,21.385c-13.195,13.224-21.387,31.482-21.387,51.652    c0,12.298,3.039,23.872,8.363,34c5.527,10.475,13.515,19.475,23.208,26.158c1.043,0.608,1.737,1.766,1.737,3.039v32.9    c0,4.63,1.909,8.825,4.948,11.863c3.067,3.067,7.262,4.949,11.891,4.949h19.33V302.183l-25.84-12.819    c-1.187,3.328-1.822,6.887-1.822,10.621c0,1.938-1.621,3.559-3.559,3.559c-1.969,0-3.563-1.62-3.563-3.559    c0-4.862,0.898-9.521,2.549-13.804l-5.556-2.72c-1.737-0.869-2.46-3.01-1.59-4.774c0.866-1.736,2.979-2.46,4.745-1.592    l5.555,2.749c1.563-2.547,3.415-4.891,5.527-7.002c6.942-6.945,16.523-11.229,27.111-11.229c10.592,0,20.169,4.312,27.114,11.229    c2.112,2.111,3.966,4.455,5.556,7.002l5.556-2.749c1.737-0.868,3.878-0.145,4.748,1.592c0.867,1.765,0.145,3.905-1.621,4.774    l-5.527,2.72c1.649,4.282,2.548,8.941,2.548,13.804c0,1.938-1.594,3.559-3.563,3.559c-1.965,0-3.559-1.62-3.559-3.559    c0-3.734-0.635-7.293-1.821-10.621l-25.868,12.819v110.538h19.358c4.629,0,8.823-1.882,11.89-4.92    c3.039-3.067,4.921-7.263,4.921-11.893v-32.9c0.027-1.129,0.579-2.229,1.562-2.923c9.781-6.713,17.856-15.713,23.38-26.246    c5.355-10.156,8.396-21.73,8.396-34.028C435.129,279.641,426.938,261.382,413.714,248.158z" style="fill-rule:evenodd;clip-rule:evenodd;"/></g></g><g id="Layer_1"/></svg>